<svg width="16" height="16" viewBox="0 0 16 16" fill="none" xmlns="http://www.w3.org/2000/svg">
<path d="M7.93512 3.9873C7.53956 3.9873 7.15288 4.1046 6.82398 4.32437C6.49508 4.54413 6.23874 4.85649 6.08736 5.22194C5.93599 5.58739 5.89638 5.98952 5.97355 6.37749C6.05072 6.76545 6.2412 7.12181 6.52091 7.40152C6.80061 7.68122 7.15698 7.8717 7.54494 7.94888C7.9329 8.02605 8.33504 7.98644 8.70049 7.83506C9.06594 7.68369 9.3783 7.42734 9.59806 7.09845C9.81782 6.76955 9.93512 6.38287 9.93512 5.9873C9.93452 5.45706 9.72361 4.9487 9.34867 4.57376C8.97373 4.19882 8.46537 3.98791 7.93512 3.9873ZM7.93512 6.9873C7.73734 6.9873 7.544 6.92866 7.37955 6.81877C7.2151 6.70889 7.08693 6.55271 7.01124 6.36999C6.93555 6.18726 6.91575 5.9862 6.95433 5.79221C6.99292 5.59823 7.08816 5.42005 7.22801 5.2802C7.36787 5.14035 7.54605 5.0451 7.74003 5.00652C7.93401 4.96793 8.13508 4.98774 8.3178 5.06343C8.50053 5.13911 8.65671 5.26729 8.76659 5.43173C8.87647 5.59618 8.93512 5.78952 8.93512 5.9873C8.93481 6.25243 8.82936 6.5066 8.64189 6.69407C8.45442 6.88154 8.20024 6.987 7.93512 6.9873Z" fill="#3A98B2"/>
<path d="M11.7783 2.14122C10.8281 1.19123 9.55964 0.626898 8.2178 0.55714C6.87596 0.487381 5.55584 0.917141 4.51222 1.76347C3.46861 2.60981 2.77549 3.81272 2.56663 5.14004C2.35777 6.46736 2.64798 7.825 3.38125 8.95093L7.15959 14.7513C7.24367 14.8804 7.35864 14.9865 7.49406 15.0599C7.62949 15.1333 7.7811 15.1717 7.93514 15.1717C8.08918 15.1717 8.24078 15.1333 8.37621 15.0599C8.51164 14.9865 8.6266 14.8804 8.71068 14.7513L12.4892 8.95093C13.1695 7.90647 13.4702 6.65987 13.3408 5.42007C13.2114 4.18028 12.6597 3.02265 11.7783 2.14122ZM11.6513 8.40509L7.93515 14.1098L4.219 8.40509C3.0815 6.65887 3.32547 4.322 4.79909 2.84831C5.21092 2.43647 5.69984 2.10978 6.23792 1.88689C6.77601 1.664 7.35273 1.54928 7.93515 1.54928C8.51758 1.54928 9.0943 1.664 9.63238 1.88689C10.1705 2.10978 10.6594 2.43647 11.0712 2.84831C12.5448 4.322 12.7888 6.65887 11.6513 8.40509Z" fill="#3A98B2"/>
</svg>
